<?xml version="1.0" standalone="no"?>
<!DOCTYPE svg PUBLIC "-//W3C//DTD SVG 20010904//EN"
 "http://www.w3.org/TR/2001/REC-SVG-20010904/DTD/svg10.dtd">
<svg version="1.0" xmlns="http://www.w3.org/2000/svg"
 width="300.000000pt" height="50.000000pt" viewBox="0 0 300.000000 50.000000"
 preserveAspectRatio="xMidYMid meet">
<metadata>
Created by potrace 1.10, written by Peter Selinger 2001-2011
</metadata>
<g transform="translate(0.000000,50.000000) scale(0.100000,-0.100000)"
fill="#a8ae94" stroke="none">
<path d="M689 255 l-54 -114 28 -4 c27 -3 38 8 15 15 -9 3 -9 12 1 36 12 29
18 32 56 32 39 0 44 -3 54 -32 9 -24 8 -34 -1 -40 -8 -4 6 -7 32 -7 25 1 37 3
28 6 -11 3 -32 43 -58 111 -23 59 -43 108 -44 109 -1 1 -27 -49 -57 -112z m64
23 l16 -38 -34 0 -34 0 17 39 c9 22 18 39 18 38 1 -1 9 -19 17 -39z"/>
<path d="M116 342 c10 -10 37 -62 58 -115 22 -53 42 -97 46 -97 4 0 16 23 27
52 l20 52 18 -52 c11 -29 22 -52 25 -52 4 0 30 52 57 115 l51 115 -31 0 c-24
0 -28 -3 -17 -10 16 -10 10 -32 -33 -130 l-19 -45 -19 44 -20 45 24 48 24 48
-31 0 c-20 0 -26 -3 -18 -9 14 -8 7 -61 -8 -61 -10 0 -22 48 -15 60 4 6 -10
10 -32 9 -21 0 -32 -3 -24 -6 7 -3 24 -28 36 -56 22 -47 23 -52 8 -81 -8 -17
-17 -32 -18 -34 -6 -7 -66 158 -60 167 4 7 -8 11 -31 11 -37 0 -37 0 -18 -18z"/>
<path d="M453 349 c14 -8 17 -25 17 -104 0 -57 -4 -95 -10 -95 -5 0 -10 -3
-10 -7 0 -5 31 -7 69 -5 53 3 73 8 87 23 17 19 7 28 -12 9 -6 -6 -28 -11 -50
-13 l-39 -2 -3 43 c-3 42 -3 42 32 42 19 0 37 -6 39 -12 3 -7 5 3 5 22 0 19
-2 29 -5 23 -2 -7 -20 -13 -39 -13 -33 0 -34 1 -34 40 0 40 0 40 40 40 30 0
40 -4 40 -16 0 -8 5 -12 10 -9 6 3 10 15 10 26 0 17 -7 19 -82 19 -61 -1 -78
-3 -65 -11z"/>
<path d="M883 349 c14 -8 17 -25 17 -104 0 -57 -4 -95 -10 -95 -5 0 -10 -3
-10 -7 0 -5 31 -7 69 -5 53 3 73 8 87 23 17 19 7 28 -12 9 -6 -6 -28 -11 -50
-13 l-39 -2 -3 90 c-2 76 0 92 14 102 15 11 11 13 -32 13 -38 -1 -45 -3 -31
-11z"/>
<path d="M1030 333 c1 -24 2 -25 11 -10 6 10 22 17 39 17 l30 0 0 -95 c0 -57
-4 -95 -10 -95 -5 0 -10 -3 -10 -7 0 -5 18 -8 40 -8 22 0 40 3 40 8 0 4 -7 7
-15 7 -12 0 -15 17 -15 95 l0 95 35 0 c22 0 38 -6 45 -17 9 -16 10 -15 8 7 -3
25 -5 25 -100 28 l-98 3 0 -28z"/>
<path d="M1263 349 c14 -8 17 -25 17 -104 0 -81 -2 -94 -17 -98 -10 -3 5 -5
32 -5 28 0 42 2 33 5 -13 3 -18 15 -18 44 0 21 -1 42 -2 45 -2 4 23 7 55 8
l57 1 0 -47 c0 -27 -4 -48 -10 -48 -5 0 -10 -3 -10 -8 0 -4 19 -5 43 -3 23 3
34 6 25 9 -16 3 -18 16 -18 102 0 69 4 100 13 103 6 3 -6 6 -27 6 -31 1 -37
-2 -28 -11 7 -7 12 -29 12 -50 l0 -38 -58 0 -58 0 4 43 c3 23 10 45 16 49 6 4
-9 8 -34 8 -35 -1 -41 -3 -27 -11z"/>
<path d="M1619 351 c19 -12 19 -190 1 -201 -7 -4 5 -9 29 -12 41 -4 55 5 25
16 -11 4 -14 17 -12 47 l3 42 55 0 55 0 3 -39 c3 -28 -1 -42 -14 -51 -10 -7
-16 -13 -13 -14 2 0 21 -1 42 -2 38 -2 49 6 22 17 -12 4 -15 25 -15 95 0 75 3
92 18 100 13 8 7 10 -28 10 -35 0 -41 -2 -27 -10 11 -7 17 -22 17 -49 l0 -40
-60 0 -60 0 0 40 c0 27 6 42 18 49 13 8 7 10 -28 11 -31 0 -41 -3 -31 -9z"/>
<path d="M1883 349 c25 -15 25 -183 0 -198 -21 -12 -17 -13 67 -11 67 2 90 11
90 38 0 13 -2 13 -18 -2 -11 -9 -36 -17 -58 -19 l-39 -2 -3 43 -3 42 35 0 c20
0 36 -4 36 -10 0 -5 5 -10 10 -10 6 0 10 14 10 30 0 17 -4 30 -10 30 -5 0 -10
-4 -10 -10 0 -5 -16 -10 -35 -10 -34 0 -35 1 -35 40 l0 40 44 0 c34 0 46 -4
49 -17 3 -11 5 -7 6 10 l1 27 -77 0 c-58 -1 -73 -3 -60 -11z"/>
<path d="M2120 263 c-24 -54 -50 -104 -59 -110 -12 -11 -8 -13 25 -12 21 1 31
3 21 6 -13 3 -16 10 -12 21 4 10 10 25 12 35 5 15 14 17 51 15 40 -3 47 -6 55
-32 7 -21 6 -30 -4 -37 -9 -6 2 -9 31 -9 33 1 41 3 29 10 -9 5 -34 55 -54 110
-21 55 -41 100 -45 100 -4 0 -27 -44 -50 -97z m69 -15 c1 -5 -12 -8 -29 -8
-35 0 -34 -3 -14 46 l17 39 13 -35 c7 -19 13 -38 13 -42z"/>
<path d="M2313 349 c14 -8 17 -25 17 -104 0 -57 -4 -95 -10 -95 -5 0 -10 -3
-10 -7 0 -12 133 -3 148 9 24 20 12 27 -23 12 -72 -30 -75 -26 -75 85 0 70 4
101 13 104 6 3 -8 6 -33 6 -35 0 -41 -2 -27 -10z"/>
<path d="M2460 351 c0 -5 -3 -18 -6 -28 -5 -17 -5 -17 9 0 8 9 28 17 46 17
l31 0 0 -94 c0 -82 -2 -95 -17 -98 -10 -3 1 -6 25 -9 23 -2 42 -1 42 3 0 5 -4
8 -10 8 -6 0 -10 38 -10 95 l0 95 34 0 c19 0 37 -6 39 -12 3 -7 6 -3 6 10 1
21 -2 22 -94 22 -52 0 -95 -4 -95 -9z"/>
<path d="M2688 353 c15 -6 17 -203 2 -203 -5 0 -10 -3 -10 -7 0 -5 18 -8 40
-8 41 0 52 8 25 19 -10 3 -15 19 -15 46 l0 40 50 0 c28 0 53 1 58 3 4 1 8 -16
10 -38 2 -27 -1 -43 -13 -51 -13 -10 -9 -12 25 -16 40 -4 53 5 25 16 -12 4
-15 25 -15 95 0 75 3 92 18 100 13 8 7 10 -28 10 -35 0 -41 -2 -27 -10 11 -7
17 -22 17 -49 l0 -40 -60 0 -60 0 0 38 c0 21 5 43 12 50 9 9 3 12 -27 11 -22
0 -34 -3 -27 -6z"/>
</g>
</svg>
