<?xml version="1.0" standalone="no"?>
<!DOCTYPE svg PUBLIC "-//W3C//DTD SVG 20010904//EN"
 "http://www.w3.org/TR/2001/REC-SVG-20010904/DTD/svg10.dtd">
<svg version="1.0" xmlns="http://www.w3.org/2000/svg"
 width="300.000000pt" height="300.000000pt" viewBox="0 0 300.000000 300.000000"
 preserveAspectRatio="xMidYMid meet">
<metadata>
Created by potrace 1.10, written by Peter Selinger 2001-2011
</metadata>
<g transform="translate(0.000000,300.000000) scale(0.050000,-0.050000)"
fill="#b8c09e" stroke="none">
<path d="M2823 5490 c-285 -240 -35 -684 305 -542 207 86 239 405 56 541 -91
68 -281 68 -361 1z m245 -102 c18 -7 32 -24 32 -38 0 -14 14 -31 30 -37 40
-15 39 -73 -1 -73 -17 0 -26 -9 -19 -20 7 -12 21 -15 31 -9 11 6 19 -3 19 -21
0 -18 -8 -27 -18 -21 -10 6 -23 -3 -30 -20 -7 -19 -22 -25 -37 -16 -20 11 -20
8 0 -17 22 -26 20 -33 -13 -41 -63 -17 -146 7 -134 38 6 15 1 27 -10 27 -71 0
-101 142 -39 185 23 16 36 35 31 42 -6 7 -5 9 1 5 9 -6 96 13 122 26 2 1 18
-3 35 -10z"/>
<path d="M1960 5355 c-108 -176 -52 -402 162 -657 236 -282 309 -273 306 38
-3 340 -90 559 -254 635 -137 64 -167 62 -214 -16z m225 -174 c19 -17 35 -40
35 -52 0 -13 18 -39 40 -59 30 -28 35 -42 17 -63 -16 -20 -16 -27 3 -27 19 0
19 -7 -2 -32 -22 -27 -21 -35 8 -51 24 -13 33 -42 31 -98 -3 -77 -22 -100 -47
-59 -7 12 -19 17 -27 12 -8 -5 -26 17 -40 50 -15 32 -35 53 -45 47 -10 -6 -18
6 -18 28 0 22 7 43 15 48 8 5 4 6 -9 3 -28 -7 -77 48 -59 66 7 7 -2 36 -20 63
-23 35 -26 53 -10 59 13 4 23 21 23 37 0 16 -9 24 -20 17 -11 -7 -20 -4 -20 7
0 47 90 49 145 4z"/>
<path d="M3848 5381 c-99 -45 -154 -111 -206 -249 -92 -248 -102 -632 -16
-648 63 -12 317 267 404 442 150 303 48 558 -182 455z m85 -177 c13 -8 21 -46
18 -84 -8 -99 -8 -100 -39 -88 -15 6 -34 1 -41 -10 -8 -13 -1 -17 18 -10 58
23 -44 -168 -115 -215 -10 -7 -13 -22 -6 -33 7 -12 4 -27 -8 -34 -25 -15 -26
-11 -30 154 -2 85 4 130 16 122 11 -7 14 -3 7 9 -19 32 7 85 41 85 21 0 27 13
20 40 -15 58 64 100 119 64z"/>
<path d="M2448 5093 c33 -136 50 -351 39 -509 l-12 -177 97 -41 c227 -96 282
-77 262 93 -25 206 -150 485 -284 629 -63 68 -119 70 -102 5z"/>
<path d="M3441 5069 c-142 -162 -244 -392 -271 -614 -20 -158 8 -174 195 -113
l145 48 3 250 c1 138 12 300 23 360 30 164 5 182 -95 69z"/>
<path d="M1309 4872 c-193 -84 -246 -370 -96 -519 212 -213 575 -7 519 295
-34 181 -254 297 -423 224z m100 -154 c-9 -14 2 -14 32 2 39 22 43 20 32 -9
-8 -20 -5 -28 8 -20 41 25 119 -49 119 -113 0 -35 -8 -55 -20 -48 -11 7 -20 0
-20 -15 0 -35 -89 -84 -118 -66 -12 7 -22 4 -22 -8 0 -52 -92 -4 -127 66 -43
87 -18 184 55 214 59 23 77 23 61 -3z"/>
<path d="M4440 4856 c-160 -82 -217 -244 -142 -408 137 -301 582 -200 582 132
0 235 -235 382 -440 276z m120 -141 c0 14 21 23 49 21 26 -3 44 -11 40 -18 -5
-8 5 -19 21 -25 17 -7 30 -28 30 -48 0 -21 11 -48 24 -61 19 -19 19 -24 0 -24
-13 0 -24 -27 -24 -60 0 -64 -11 -69 -159 -64 -59 2 -107 38 -111 84 0 6 -8
22 -17 36 -9 14 -7 37 5 52 12 14 17 31 10 37 -6 6 7 17 29 24 21 7 45 28 52
46 11 29 16 30 32 4 12 -19 18 -21 19 -4z"/>
<path d="M1860 4769 c0 -151 82 -386 191 -551 135 -202 173 -199 279 22 l57
120 -183 181 c-102 99 -208 216 -237 260 -75 114 -107 104 -107 -32z"/>
<path d="M4041 4812 c-73 -118 -186 -244 -298 -334 -124 -98 -129 -146 -32
-311 93 -160 178 -111 319 183 158 329 167 714 11 462z"/>
<path d="M2354 4155 c-107 -197 -108 -196 131 -315 119 -60 167 -75 194 -61
55 30 126 217 129 339 l2 108 -150 47 c-212 66 -205 69 -306 -118z m236 26
c-6 -11 9 -25 35 -31 38 -10 46 -25 45 -86 -2 -112 -46 -146 -127 -96 -14 9
-31 11 -37 4 -7 -6 -24 12 -39 41 -29 55 -35 82 -15 61 13 -13 68 33 68 57 0
8 16 27 35 41 42 32 51 34 35 9z"/>
<path d="M3325 4267 c-134 -46 -145 -55 -145 -107 0 -82 74 -309 119 -363 l39
-47 175 90 c234 120 236 126 135 316 -97 181 -109 186 -323 111z m141 -120
c-8 -20 -5 -29 8 -21 38 24 64 -73 35 -127 -15 -27 -28 -41 -28 -31 -1 10 -19
2 -41 -18 -25 -22 -40 -27 -40 -12 0 13 -9 19 -20 12 -11 -7 -20 6 -20 29 0
22 -10 41 -22 41 -13 0 -16 14 -8 35 8 19 15 46 16 60 0 19 8 19 32 0 18 -13
25 -16 17 -6 -18 22 21 71 57 71 17 0 22 -12 14 -33z"/>
<path d="M2990 4205 c-82 -11 -84 -14 -140 -216 -78 -281 -84 -269 135 -269
256 1 254 -1 188 213 -29 98 -53 191 -53 208 0 31 -39 82 -59 76 -6 -2 -38 -7
-71 -12z m47 -294 c-9 -33 -17 -65 -17 -70 0 -6 -14 11 -32 35 -38 55 -27 95
27 95 35 0 38 -7 22 -60z"/>
<path d="M1135 4149 c-28 -29 -15 -46 114 -138 71 -50 185 -154 254 -231 142
-158 162 -164 305 -85 174 97 165 148 -49 286 -167 107 -576 217 -624 168z"/>
<path d="M4600 4129 c-264 -71 -571 -270 -528 -342 69 -117 286 -174 353 -93
124 149 224 243 334 316 191 127 107 190 -159 119z"/>
<path d="M731 4080 c-161 -64 -166 -76 -96 -226 88 -187 293 -276 638 -277
266 -1 296 25 186 164 -202 256 -541 413 -728 339z m209 -142 c0 -12 14 -17
31 -10 18 6 46 -2 62 -18 17 -17 38 -25 49 -19 10 6 18 1 18 -11 0 -12 8 -17
19 -11 10 6 25 1 33 -12 8 -14 6 -18 -8 -10 -11 8 -26 5 -33 -5 -6 -10 15 -24
47 -32 110 -24 162 -135 57 -121 -132 16 -372 87 -309 90 29 2 -37 56 -77 64
-46 9 -64 75 -26 99 39 25 137 22 137 -4z"/>
<path d="M5046 4091 c-225 -71 -627 -417 -561 -483 138 -138 780 25 875 222
95 196 -74 337 -314 261z m121 -157 c-9 -14 -1 -13 19 3 30 25 33 22 29 -28
-2 -33 -18 -59 -40 -64 -19 -6 -35 -24 -36 -42 0 -30 -3 -29 -27 2 -14 19 -32
29 -39 22 -7 -8 -3 -25 8 -38 26 -31 -41 -58 -127 -52 -35 2 -52 -4 -44 -17 7
-11 -6 -20 -30 -20 -28 0 -38 8 -28 25 8 14 7 19 -1 11 -9 -8 -35 -5 -59 6
-41 20 -41 19 -3 -11 38 -30 38 -31 -3 -31 -30 0 -40 11 -36 35 4 19 8 40 8
47 1 6 16 13 32 15 17 2 44 5 61 6 20 3 24 10 10 24 -24 24 169 121 211 105
15 -6 28 -4 28 4 0 9 18 17 40 19 27 2 36 -6 27 -21z"/>
<path d="M2144 3869 c-62 -44 -56 -81 46 -260 50 -87 95 -175 102 -194 22 -70
165 11 269 152 83 114 81 118 -131 231 -211 113 -222 115 -286 71z m216 -190
c0 -12 9 -16 20 -9 11 7 20 3 20 -9 0 -11 0 -28 0 -36 0 -8 -7 -15 -15 -15 -8
0 -28 -9 -45 -19 -26 -16 -26 -14 -3 15 25 31 18 43 -22 36 -8 -1 -15 12 -15
28 0 17 14 30 30 30 17 0 30 -10 30 -21z"/>
<path d="M3709 3873 c-21 -15 -104 -62 -184 -103 -177 -93 -178 -104 -18 -263
147 -147 176 -154 224 -52 19 41 69 131 111 200 l75 125 -50 60 c-55 66 -97
74 -158 33z m-21 -190 c21 -34 -45 -97 -66 -64 -13 19 -12 39 2 55 24 30 49
33 64 9z"/>
<path d="M1835 3637 c-175 -92 -169 -79 -113 -256 23 -72 46 -142 50 -156 28
-96 468 15 468 117 0 84 -176 379 -226 377 -13 0 -94 -37 -179 -82z m175 -117
c-7 -11 -1 -20 12 -20 14 0 19 -6 12 -12 -7 -7 1 -26 17 -42 56 -56 -13 -128
-111 -116 -27 4 -56 7 -64 8 -8 1 -10 16 -3 32 6 17 2 30 -8 30 -11 0 -20 23
-20 50 0 47 17 58 90 55 13 0 20 8 14 17 -6 10 8 18 31 18 23 0 37 -9 30 -20z"/>
<path d="M3902 3640 c-178 -246 -168 -334 46 -411 237 -87 264 -75 330 138 56
184 59 175 -83 257 -195 114 -221 115 -293 16z m188 -120 c7 -12 23 -15 36 -7
13 7 17 6 9 -3 -8 -9 1 -35 20 -57 21 -24 24 -33 7 -23 -22 12 -26 6 -17 -26
18 -70 -130 -110 -165 -44 -12 23 -31 36 -41 29 -10 -6 -19 -2 -19 10 0 11 10
21 21 21 12 0 16 8 10 18 -15 25 9 84 30 72 9 -6 22 -2 29 10 7 11 25 20 40
20 15 0 33 -9 40 -20z"/>
<path d="M2533 3463 l-197 -198 7 -269 7 -269 175 -172 c96 -94 175 -181 175
-193 0 -15 92 -22 287 -22 l287 0 193 195 193 195 -1 280 -1 280 -102 80 c-56
44 -137 127 -181 185 l-80 105 -283 0 -283 0 -196 -197z m526 68 c18 -11 31
-10 35 2 4 11 34 16 66 11 33 -5 55 -16 50 -24 -5 -9 14 -22 42 -29 36 -9 48
-22 40 -44 -9 -22 -4 -28 18 -20 18 7 30 0 30 -18 0 -16 9 -29 19 -29 34 0
164 -188 154 -224 -5 -19 1 -33 13 -30 38 7 42 -200 5 -238 -25 -25 -27 -39
-9 -60 17 -21 17 -28 -1 -28 -13 0 -18 -8 -12 -18 12 -21 -183 -228 -234 -248
-19 -7 -35 -22 -35 -33 0 -11 -13 -15 -30 -8 -17 6 -30 0 -30 -13 0 -16 -19
-21 -50 -15 -28 5 -56 2 -62 -8 -5 -9 -57 -12 -114 -6 -57 6 -115 12 -129 13
-14 2 -25 10 -25 19 0 10 -8 15 -17 12 -59 -17 -334 326 -306 382 9 18 14 60
11 93 -2 33 -5 81 -6 106 -1 26 -9 42 -18 37 -8 -6 -15 7 -15 27 0 31 5 33 29
14 22 -18 26 -18 16 0 -8 13 -6 29 5 35 10 7 15 25 9 40 -6 15 10 41 35 59 25
18 38 32 29 32 -9 0 -5 14 9 31 20 25 29 26 42 5 13 -20 17 -20 19 -1 2 14 4
34 6 45 1 11 9 19 19 19 9 -1 31 16 50 37 18 21 43 34 55 30 12 -4 33 6 47 23
28 34 71 43 51 12 -6 -11 17 -8 53 7 70 30 92 30 136 3z"/>
<path d="M892 3543 c-72 -117 603 -443 778 -376 43 17 30 132 -29 265 l-37 84
-317 8 c-174 5 -332 16 -350 24 -18 8 -38 6 -45 -5z"/>
<path d="M4920 3525 c-116 -23 -186 -25 -310 -10 -202 24 -218 15 -272 -154
-66 -205 -24 -236 233 -171 243 62 601 283 561 346 -17 28 -18 28 -212 -11z"/>
<path d="M670 3292 c-229 -100 -271 -411 -73 -543 319 -211 672 202 398 465
-107 104 -210 129 -325 78z m150 -155 c0 -13 5 -18 12 -12 35 35 105 -72 97
-150 -13 -124 -155 -182 -258 -104 -28 21 -30 29 -10 29 19 1 21 6 7 15 -32
22 -49 105 -21 105 16 1 15 6 -2 16 -19 13 -18 25 6 55 18 22 25 26 18 9 -8
-16 5 -10 29 15 46 48 122 61 122 22z"/>
<path d="M5017 3224 c-245 -228 3 -634 313 -515 328 125 248 591 -102 591
-122 0 -134 -4 -211 -76z m224 -85 c27 -14 39 -14 39 0 0 14 14 13 39 -3 21
-13 37 -33 35 -45 -2 -12 9 -18 24 -15 25 5 25 1 0 -29 -18 -22 -19 -29 -3
-20 16 10 25 4 25 -16 0 -17 -10 -31 -22 -31 -13 0 -18 -18 -12 -39 5 -22 3
-38 -6 -35 -9 2 -16 -4 -16 -14 -1 -64 -173 -71 -227 -8 -29 33 -32 47 -12 59
18 12 15 16 -10 17 -23 0 -35 16 -35 48 0 26 16 65 35 86 19 21 27 24 16 7
-10 -17 3 -11 30 14 56 52 50 51 100 24z"/>
<path d="M2130 3188 c-44 -16 -136 -44 -205 -61 l-125 -32 0 -97 c0 -90 4 -98
55 -109 30 -7 115 -29 188 -51 181 -52 214 -49 239 17 27 68 12 295 -22 335
-29 35 -28 35 -130 -2z m14 -164 c24 -10 29 -23 17 -43 -14 -22 -24 -23 -46
-5 -16 13 -34 18 -41 12 -17 -18 -56 12 -43 33 13 22 63 23 113 3z"/>
<path d="M3738 3188 c-28 -35 -34 -285 -9 -365 16 -49 23 -49 288 32 174 53
214 92 199 192 -5 33 -339 161 -449 173 -1 0 -14 -15 -29 -32z m219 -153 c18
6 24 -3 19 -28 -5 -27 -23 -36 -64 -33 -64 5 -95 27 -57 40 14 5 20 19 13 30
-9 13 0 14 25 1 20 -11 49 -15 64 -10z"/>
<path d="M1450 2810 c-176 -47 -316 -111 -442 -201 -192 -136 -189 -189 7
-147 63 14 221 24 350 23 l235 -2 29 55 c131 253 73 340 -179 272z"/>
<path d="M4322 2822 c-33 -21 -18 -121 38 -252 l38 -88 236 2 c130 2 289 -9
353 -22 164 -36 187 -7 76 95 -187 173 -634 333 -741 265z"/>
<path d="M1783 2785 c-21 -39 -103 -300 -103 -326 0 -21 286 -179 324 -179 57
0 236 278 236 366 0 102 -411 227 -457 139z m177 -121 c0 -8 19 -17 43 -19 69
-5 84 -34 49 -100 -16 -33 -24 -66 -17 -74 8 -7 -3 -7 -24 1 -25 10 -33 7 -24
-7 9 -14 -2 -21 -27 -20 -22 2 -40 10 -40 18 0 8 -17 20 -38 26 -51 17 -70
111 -21 111 41 0 67 53 33 67 -13 5 -4 11 21 11 25 1 45 -5 45 -14z"/>
<path d="M3942 2770 c-214 -79 -221 -122 -61 -376 81 -129 103 -133 256 -53
205 109 201 98 120 354 -48 149 -90 159 -315 75z m128 -110 c7 -11 23 -20 36
-20 15 0 12 9 -6 22 -27 19 -27 20 0 13 18 -5 30 -33 31 -70 0 -34 -7 -58 -15
-52 -9 5 -16 0 -16 -12 0 -11 9 -21 20 -21 11 0 20 -10 20 -23 0 -13 -6 -18
-12 -11 -7 7 -26 -1 -42 -17 -35 -36 -88 -38 -81 -4 3 14 -6 23 -20 20 -14 -3
-25 11 -25 31 0 20 -10 46 -22 58 -16 16 -11 26 20 35 23 8 42 27 42 42 0 33
51 39 70 9z"/>
<path d="M2285 2565 c-21 -30 -75 -124 -120 -209 l-82 -154 70 -62 70 -62 64
42 c35 23 119 70 187 105 184 93 183 116 -1 290 -128 121 -137 124 -188 50z
m71 -248 c-39 -24 -56 -20 -56 13 0 17 9 30 20 30 11 0 21 16 21 35 1 25 7 21
21 -13 14 -36 12 -53 -6 -65z"/>
<path d="M3507 2492 c-159 -155 -159 -156 65 -287 196 -116 253 -124 312 -44
42 56 50 36 -152 374 -65 110 -70 109 -225 -43z m173 -146 c0 -47 -49 -17 -57
35 -6 41 -3 44 25 21 18 -15 32 -40 32 -56z"/>
<path d="M4610 2427 c-22 -5 -60 -13 -85 -18 -153 -33 257 -422 526 -500 244
-71 404 55 310 244 -93 185 -490 331 -751 274z m370 -164 c41 -2 83 -19 103
-42 17 -22 38 -34 45 -27 6 7 12 1 12 -14 0 -15 6 -21 13 -14 21 22 67 -27 67
-71 0 -25 -10 -35 -28 -29 -15 6 -37 1 -50 -12 -14 -14 -22 -14 -22 -1 0 11
-27 16 -60 11 -36 -5 -60 0 -60 14 0 12 -12 22 -26 22 -14 0 -37 11 -51 25
-14 14 -34 26 -44 28 -10 1 -27 3 -38 5 -10 1 -24 20 -31 42 -7 22 -26 40 -43
40 -16 0 -24 8 -18 19 7 10 29 15 51 11 22 -4 45 1 51 12 7 12 22 13 36 3 13
-10 55 -20 93 -22z"/>
<path d="M980 2392 c-238 -66 -358 -176 -383 -351 -17 -118 261 -182 438 -102
270 123 564 426 453 469 -55 21 -415 10 -508 -16z m240 -134 c0 -9 16 -11 35
-4 31 12 32 9 8 -20 -16 -19 -41 -34 -57 -34 -15 0 -23 -9 -16 -20 7 -11 -7
-20 -30 -20 -23 0 -37 -9 -30 -20 11 -17 -19 -29 -36 -15 -3 3 -28 -9 -55 -27
-68 -44 -159 -65 -159 -36 0 16 -7 17 -26 2 -16 -14 -36 -15 -55 -3 -24 16
-25 22 -1 37 15 10 22 25 17 35 -6 9 2 29 17 43 15 14 28 17 28 5 0 -11 25 5
56 35 55 54 304 89 304 42z"/>
<path d="M4211 2314 c-169 -95 -180 -121 -81 -207 154 -135 389 -233 581 -243
211 -11 213 2 21 144 -82 61 -196 167 -253 236 -127 153 -121 152 -268 70z"/>
<path d="M1563 2295 c-52 -83 -181 -206 -328 -313 -123 -89 -137 -112 -77
-131 192 -61 842 247 770 365 -78 126 -305 175 -365 79z"/>
<path d="M2807 2250 c-15 -40 87 -434 118 -454 55 -34 155 -18 173 29 48 123
124 416 113 434 -22 35 -390 27 -404 -9z"/>
<path d="M2453 2146 c-190 -102 -196 -123 -88 -318 99 -179 85 -175 310 -94
166 59 174 79 113 287 -65 225 -113 243 -335 125z m100 -131 c-10 15 -4 25 13
25 15 0 38 -20 50 -45 l21 -45 2 46 c0 26 9 41 19 35 15 -9 16 -48 4 -163 -1
-12 -13 -22 -27 -23 -14 -2 -43 -7 -65 -11 -54 -12 -117 43 -89 78 12 14 20
37 18 52 -9 68 0 82 35 53 23 -18 29 -19 19 -2z"/>
<path d="M3273 2165 c-39 -75 -93 -262 -93 -320 0 -99 347 -205 399 -121 191
310 191 310 -44 428 -166 84 -224 87 -262 13z m138 -138 c-5 -15 4 -27 21 -27
17 0 25 9 18 20 -7 11 2 20 19 20 17 0 29 -11 26 -25 -3 -14 10 -24 28 -23 46
4 29 -89 -27 -142 -23 -22 -35 -29 -28 -15 8 14 5 25 -7 25 -11 0 -21 -9 -21
-21 0 -11 -25 -7 -59 11 -62 31 -82 150 -27 150 14 0 20 12 15 27 -6 15 3 26
21 26 18 0 27 -11 21 -26z"/>
<path d="M2102 1847 c-138 -157 -242 -427 -242 -631 0 -132 38 -126 138 22 44
64 150 181 235 258 l155 142 -49 104 c-103 221 -126 231 -237 105z"/>
<path d="M3720 1846 c-113 -177 -107 -203 76 -376 88 -83 189 -195 224 -250
183 -285 185 49 3 430 -139 290 -213 338 -303 196z"/>
<path d="M4475 1711 c-308 -110 -266 -541 59 -603 196 -37 407 197 345 384
-62 189 -231 281 -404 219z m185 -150 c0 -10 -7 -21 -15 -26 -8 -5 -5 -6 8 -3
64 15 113 -108 64 -160 -19 -21 -32 -45 -27 -53 16 -25 -37 -55 -110 -62 -61
-6 -75 2 -114 63 -57 89 -59 243 -4 209 10 -7 23 0 28 15 12 29 170 45 170 17z"/>
<path d="M1222 1646 c-244 -243 11 -650 325 -519 310 130 232 570 -105 589
l-142 9 -78 -79z m328 -130 c53 -46 66 -96 25 -96 -18 -1 -18 -5 2 -18 22 -14
21 -26 -7 -69 -19 -29 -42 -48 -52 -42 -10 6 -18 2 -18 -10 0 -35 -123 -24
-154 14 -19 23 -24 25 -16 5 7 -16 -2 -12 -19 10 -18 22 -29 56 -24 75 5 19 2
35 -8 35 -9 0 -8 26 4 59 13 38 30 55 49 48 15 -6 28 -1 28 11 0 40 137 24
190 -22z"/>
<path d="M2640 1654 c-152 -52 -156 -62 -159 -426 0 -111 -11 -231 -23 -267
-15 -41 -16 -71 -4 -83 77 -77 300 280 362 582 49 237 26 263 -176 194z"/>
<path d="M3174 1637 c-50 -196 272 -864 367 -763 8 9 3 97 -12 196 -17 113
-23 245 -15 355 l12 175 -75 31 c-142 59 -263 62 -277 6z"/>
<path d="M2289 1461 c-102 -75 -259 -269 -320 -393 -128 -260 -54 -526 131
-470 188 56 281 214 321 544 40 327 2 419 -132 319z m24 -234 c2 -29 -3 -43
-11 -30 -12 18 -82 -36 -82 -64 0 -13 71 -1 100 17 25 15 26 12 5 -13 -13 -17
-18 -37 -10 -46 8 -8 6 -13 -5 -10 -43 8 -59 -3 -30 -21 22 -14 23 -19 4 -20
-15 0 -20 -10 -13 -22 8 -12 4 -29 -8 -36 -12 -8 -25 -31 -28 -53 -19 -112
-117 -190 -171 -136 -22 22 -23 34 -4 58 15 17 17 29 4 29 -24 0 11 134 47
180 13 17 39 59 57 95 18 36 44 63 57 60 13 -3 25 6 27 20 5 42 7 45 33 45 14
0 26 -24 28 -53z"/>
<path d="M3587 1496 c-57 -94 -1 -522 97 -729 46 -98 218 -202 295 -177 130
41 154 279 49 488 -122 244 -391 499 -441 418z m192 -264 c10 -26 29 -51 42
-56 12 -4 24 -31 26 -59 2 -32 12 -48 28 -42 15 5 25 -7 25 -32 0 -22 10 -47
21 -54 12 -7 17 -26 11 -42 -7 -18 -3 -24 10 -16 15 9 19 -10 12 -61 -13 -92
-41 -125 -80 -93 -15 12 -34 17 -41 9 -7 -7 -13 6 -13 28 0 22 -17 62 -38 89
-30 39 -47 96 -61 213 -1 4 -12 0 -26 -8 -20 -11 -20 -8 0 13 14 15 25 40 25
57 0 22 -8 20 -31 -9 -30 -38 -31 -38 -11 3 11 24 14 50 6 59 -8 8 -3 9 11 1
15 -9 25 -2 25 17 0 48 39 37 59 -17z"/>
<path d="M2861 1045 c-289 -147 -174 -602 148 -581 145 9 213 51 271 167 129
261 -159 546 -419 414z m228 -157 c33 -14 54 -27 45 -27 -9 -1 -3 -15 13 -31
34 -34 27 -108 -12 -133 -14 -9 -17 -17 -8 -17 10 0 6 -14 -8 -31 -14 -18 -43
-27 -63 -22 -20 5 -36 1 -36 -9 0 -10 -14 -18 -31 -18 -19 0 -26 9 -17 23 9
14 5 18 -9 9 -12 -8 -39 -5 -58 6 -19 12 -27 21 -16 21 10 1 1 15 -20 32 -22
18 -30 27 -18 22 12 -6 22 26 24 81 4 125 73 156 214 94z"/>
</g>
</svg>
